<mxfile host="app.diagrams.net" agent="Mozilla/5.0 (Macintosh; Intel Mac OS X 10_15_7) AppleWebKit/537.36 (KHTML, like Gecko) Chrome/131.0.0.0 Safari/537.36" version="26.0.10">
  <diagram id="prtHgNgQTEPvFCAcTncT" name="Page-1">
    <mxGraphModel dx="1242" dy="766" grid="1" gridSize="10" guides="1" tooltips="1" connect="1" arrows="1" fold="1" page="1" pageScale="1" pageWidth="827" pageHeight="1169" math="0" shadow="0">
      <root>
        <mxCell id="0" />
        <mxCell id="1" parent="0" />
        <mxCell id="dNxyNK7c78bLwvsdeMH5-11" value="Test Automation Goals and Objectives" style="swimlane;https://cdn4.iconfinder.com/data/icons/online-marketing-hand-drawn-vol-2/52/goals__seo__target__mission__office__shooting__business-512.png;html=1;startSize=20;horizontal=1;containerType=tree;glass=0;sketch=1;curveFitting=1;jiggle=2;" parent="1" vertex="1">
          <mxGeometry x="120" y="100" width="1160" height="1020" as="geometry" />
        </mxCell>
        <UserObject label="&lt;font style=&quot;font-size: 18px;&quot;&gt;Test Automation Goals &amp;amp; Objectives&lt;/font&gt;" name="Tessa Miller" position="CFO" location="Office 1" email="me@example.com" placeholders="1" link="https://www.draw.io" id="dNxyNK7c78bLwvsdeMH5-12">
          <mxCell style="label;image=https://cdn4.iconfinder.com/data/icons/online-marketing-hand-drawn-vol-2/52/goals__seo__target__mission__office__shooting__business-1024.png;whiteSpace=wrap;html=1;rounded=0;glass=0;treeMoving=1;treeFolding=1;sketch=1;curveFitting=1;jiggle=2;fillColor=#f8cecc;strokeColor=#b85450;" parent="dNxyNK7c78bLwvsdeMH5-11" vertex="1">
            <mxGeometry x="480" y="40" width="230" height="80" as="geometry" />
          </mxCell>
        </UserObject>
        <mxCell id="dNxyNK7c78bLwvsdeMH5-13" value="" style="endArrow=blockThin;endFill=1;fontSize=11;edgeStyle=elbowEdgeStyle;elbow=vertical;rounded=0;sketch=1;curveFitting=1;jiggle=2;" parent="dNxyNK7c78bLwvsdeMH5-11" source="dNxyNK7c78bLwvsdeMH5-12" target="dNxyNK7c78bLwvsdeMH5-14" edge="1">
          <mxGeometry relative="1" as="geometry" />
        </mxCell>
        <UserObject label="&lt;font style=&quot;font-size: 16px;&quot;&gt;Fast&lt;/font&gt;" name="Edward Morrison" position="Brand Manager" location="Office 2" email="me@example.com" placeholders="1" link="https://www.draw.io" id="dNxyNK7c78bLwvsdeMH5-14">
          <mxCell style="label;image=https://cdn3.iconfinder.com/data/icons/strokeline/128/21_icons-1024.png;whiteSpace=wrap;html=1;rounded=0;glass=0;treeFolding=1;treeMoving=1;sketch=1;curveFitting=1;jiggle=2;fillColor=#ffe6cc;strokeColor=#d79b00;" parent="dNxyNK7c78bLwvsdeMH5-11" vertex="1">
            <mxGeometry x="130" y="190" width="180" height="80" as="geometry" />
          </mxCell>
        </UserObject>
        <mxCell id="dNxyNK7c78bLwvsdeMH5-15" value="" style="endArrow=blockThin;endFill=1;fontSize=11;edgeStyle=elbowEdgeStyle;elbow=vertical;rounded=0;sketch=1;curveFitting=1;jiggle=2;" parent="dNxyNK7c78bLwvsdeMH5-11" edge="1">
          <mxGeometry relative="1" as="geometry">
            <mxPoint x="589.5" y="120" as="sourcePoint" />
            <mxPoint x="589.5" y="180" as="targetPoint" />
          </mxGeometry>
        </mxCell>
        <UserObject label="&lt;font style=&quot;font-size: 16px;&quot;&gt;Trustworthy&lt;/font&gt;" name="Evan Valet" position="HR Director" location="Office 4" email="me@example.com" placeholders="1" link="https://www.draw.io" id="dNxyNK7c78bLwvsdeMH5-16">
          <mxCell style="label;image=https://cdn2.iconfinder.com/data/icons/growth-and-learn/512/trust-1024.png;html=1;rounded=0;glass=0;treeFolding=1;treeMoving=1;sketch=1;curveFitting=1;jiggle=2;fillColor=#d5e8d4;strokeColor=#82b366;" parent="dNxyNK7c78bLwvsdeMH5-11" vertex="1">
            <mxGeometry x="490" y="190" width="190" height="80" as="geometry" />
          </mxCell>
        </UserObject>
        <mxCell id="dNxyNK7c78bLwvsdeMH5-17" value="" style="endArrow=blockThin;endFill=1;fontSize=11;edgeStyle=elbowEdgeStyle;elbow=vertical;rounded=0;sketch=1;curveFitting=1;jiggle=2;" parent="dNxyNK7c78bLwvsdeMH5-11" source="dNxyNK7c78bLwvsdeMH5-12" edge="1">
          <mxGeometry relative="1" as="geometry">
            <mxPoint x="920" y="190" as="targetPoint" />
          </mxGeometry>
        </mxCell>
        <UserObject label="&lt;font style=&quot;font-size: 16px;&quot;&gt;Timely&lt;/font&gt;" name="Alison Donovan" position="System Admin" location="Office 3" email="me@example.com" placeholders="1" link="https://www.draw.io" id="dNxyNK7c78bLwvsdeMH5-18">
          <mxCell style="label;image=https://cdn3.iconfinder.com/data/icons/watchify-v1-0-80px/80/arrow-left-80px-1024.png;whiteSpace=wrap;html=1;rounded=0;glass=0;sketch=1;curveFitting=1;jiggle=2;fillColor=#dae8fc;strokeColor=#6c8ebf;" parent="dNxyNK7c78bLwvsdeMH5-11" vertex="1">
            <mxGeometry x="810" y="190" width="180" height="80" as="geometry" />
          </mxCell>
        </UserObject>
        <mxCell id="lE6xOp5lvpQgKnNLigZw-4" value="&lt;b&gt;Distributed run&lt;/b&gt;: Run tests on multiple runners" style="rounded=1;whiteSpace=wrap;html=1;sketch=1;curveFitting=1;jiggle=2;" parent="dNxyNK7c78bLwvsdeMH5-11" vertex="1">
          <mxGeometry x="230" y="290" width="200" height="60" as="geometry" />
        </mxCell>
        <mxCell id="lE6xOp5lvpQgKnNLigZw-5" value="" style="endArrow=none;html=1;rounded=0;sketch=1;curveFitting=1;jiggle=2;" parent="dNxyNK7c78bLwvsdeMH5-11" edge="1">
          <mxGeometry width="50" height="50" relative="1" as="geometry">
            <mxPoint x="190" y="500" as="sourcePoint" />
            <mxPoint x="190" y="270" as="targetPoint" />
          </mxGeometry>
        </mxCell>
        <mxCell id="lE6xOp5lvpQgKnNLigZw-6" value="&lt;h1 style=&quot;margin-top: 0px;&quot;&gt;Enablers&lt;/h1&gt;" style="text;html=1;whiteSpace=wrap;overflow=hidden;rounded=0;sketch=1;curveFitting=1;jiggle=2;" parent="dNxyNK7c78bLwvsdeMH5-11" vertex="1">
          <mxGeometry x="80" y="340" width="180" height="40" as="geometry" />
        </mxCell>
        <mxCell id="lE6xOp5lvpQgKnNLigZw-7" value="&lt;b&gt;Parallel run&lt;/b&gt;: Run tests on multiple threads within a runner." style="rounded=1;whiteSpace=wrap;html=1;sketch=1;curveFitting=1;jiggle=2;" parent="dNxyNK7c78bLwvsdeMH5-11" vertex="1">
          <mxGeometry x="230" y="380" width="200" height="60" as="geometry" />
        </mxCell>
        <mxCell id="lE6xOp5lvpQgKnNLigZw-8" value="&lt;b&gt;Powerful runners&lt;/b&gt;: Create custom powerful runners for say 32GB/ 64GB." style="rounded=1;whiteSpace=wrap;html=1;sketch=1;curveFitting=1;jiggle=2;" parent="dNxyNK7c78bLwvsdeMH5-11" vertex="1">
          <mxGeometry x="230" y="460" width="200" height="60" as="geometry" />
        </mxCell>
        <mxCell id="dcq4-NIjGIj9vY-xPq-j-1" value="&lt;b&gt;KPIs:&lt;/b&gt; All Tests &lt;b&gt;should finish in less than 9 mins&lt;/b&gt;." style="ellipse;whiteSpace=wrap;html=1;" vertex="1" parent="dNxyNK7c78bLwvsdeMH5-11">
          <mxGeometry x="230" y="560" width="210" height="80" as="geometry" />
        </mxCell>
        <mxCell id="dcq4-NIjGIj9vY-xPq-j-2" value="&lt;b&gt;Run &quot;updated&quot; tests on pre-commit hooks.&lt;/b&gt;" style="rounded=1;whiteSpace=wrap;html=1;sketch=1;curveFitting=1;jiggle=2;" vertex="1" parent="dNxyNK7c78bLwvsdeMH5-11">
          <mxGeometry x="920" y="290" width="200" height="60" as="geometry" />
        </mxCell>
        <mxCell id="dcq4-NIjGIj9vY-xPq-j-3" value="&lt;h1 style=&quot;margin-top: 0px;&quot;&gt;Enablers&lt;/h1&gt;" style="text;html=1;whiteSpace=wrap;overflow=hidden;rounded=0;sketch=1;curveFitting=1;jiggle=2;" vertex="1" parent="dNxyNK7c78bLwvsdeMH5-11">
          <mxGeometry x="770" y="340" width="180" height="40" as="geometry" />
        </mxCell>
        <mxCell id="dcq4-NIjGIj9vY-xPq-j-4" value="&lt;b&gt;Run &quot;affected&quot; tests on &quot;pull request env&quot;.&lt;/b&gt;" style="rounded=1;whiteSpace=wrap;html=1;sketch=1;curveFitting=1;jiggle=2;" vertex="1" parent="dNxyNK7c78bLwvsdeMH5-11">
          <mxGeometry x="920" y="380" width="200" height="60" as="geometry" />
        </mxCell>
        <mxCell id="dcq4-NIjGIj9vY-xPq-j-5" value="&lt;b&gt;Run &quot;all&quot; tests post deployment of environments (dev, staging) etc.&lt;/b&gt;" style="rounded=1;whiteSpace=wrap;html=1;sketch=1;curveFitting=1;jiggle=2;" vertex="1" parent="dNxyNK7c78bLwvsdeMH5-11">
          <mxGeometry x="920" y="460" width="200" height="60" as="geometry" />
        </mxCell>
        <mxCell id="dcq4-NIjGIj9vY-xPq-j-6" value="&lt;div&gt;&lt;b style=&quot;background-color: transparent; color: light-dark(rgb(0, 0, 0), rgb(255, 255, 255));&quot;&gt;&amp;nbsp;KPIs:&lt;/b&gt;&lt;span style=&quot;background-color: transparent; color: light-dark(rgb(0, 0, 0), rgb(255, 255, 255));&quot;&gt;&amp;nbsp;All &lt;b&gt;Hooks&lt;/b&gt; and &lt;b&gt;pipelines&lt;/b&gt; are in place to run different test use cases.&lt;/span&gt;&lt;/div&gt;" style="ellipse;whiteSpace=wrap;html=1;" vertex="1" parent="dNxyNK7c78bLwvsdeMH5-11">
          <mxGeometry x="921" y="650" width="210" height="80" as="geometry" />
        </mxCell>
        <mxCell id="dcq4-NIjGIj9vY-xPq-j-7" value="&lt;b&gt;Run &quot;all&quot; tests pre deployment to production.&lt;/b&gt;" style="rounded=1;whiteSpace=wrap;html=1;sketch=1;curveFitting=1;jiggle=2;" vertex="1" parent="dNxyNK7c78bLwvsdeMH5-11">
          <mxGeometry x="921" y="550" width="200" height="60" as="geometry" />
        </mxCell>
      </root>
    </mxGraphModel>
  </diagram>
</mxfile>
